PathFileType	4	(X/Y/Z)	pose_F01_0-95.trc
DataRate	CameraRate	NumFrames	NumMarkers	Units	OrigDataRate	OrigDataStartFrame	OrigNumFrames
30	30	11	21	m	30	76	95
Frame#	Time	CHip			RHip			RKnee			RAnkle			RBigToe			RSmallToe			RHeel			LHip			LKnee			LAnkle			LBigToe			LSmallToe			LHeel			Neck			Nose			RShoulder			RElbow			RWrist			LShoulder			LElbow			LWrist			
		X1	Y1	Z1	X2	Y2	Z2	X3	Y3	Z3	X4	Y4	Z4	X5	Y5	Z5	X6	Y6	Z6	X7	Y7	Z7	X8	Y8	Z8	X9	Y9	Z9	X10	Y10	Z10	X11	Y11	Z11	X12	Y12	Z12	X13	Y13	Z13	X14	Y14	Z14	X15	Y15	Z15	X16	Y16	Z16	X17	Y17	Z17	X18	Y18	Z18	X19	Y19	Z19	X20	Y20	Z20	X21	Y21	Z21	
76	2.533333333333333	-0.2819453618075897	1.8930229825120042	-0.6712952383677008	-0.29916254089656574	1.8906055190021196	-0.6077287338293231																-1.2163218384041676	1.7982512553837342	0.19150751404622954	-0.2803707529041988	1.7559821124883421	-0.6873418634707114													-0.2876544498696307	2.045908039680756	-0.6756999445149642	-0.2768043675029662	2.115689251552695	-0.6581884477417168	-0.30812934975844264	2.040049730203519	-0.5890213369427959	-0.3168715647709443	1.9596377647991445	-0.5383906522946752	-0.3159775784530078	1.9897926120976193	-0.43869362872267603	-0.26675735176088894	2.05525956856957	-0.7602025438610824	-0.2603554708361229	1.9715090584195443	-0.7905066250894439	-1.1246806488235084	1.7928137866345797	0.0448439104981281
77	2.566666666666667	-0.2818968985092506	1.8915382212147407	-0.6711198760152145	-0.29914799543811454	1.8893120973975515	-0.6075949795427064																-1.216515978360808	1.7977691938720528	0.19190972159484454	-0.2803707529041988	1.7559821124883421	-0.6873418634707114													-0.2876607701497994	2.0459843371014306	-0.6757488302644593	-0.2747826225034926	2.114254696217272	-0.6599921958392433	-0.3101391204710732	2.041258921132568	-0.587449285296346	-1.5548001903855504	1.8662076041578628	0.7570696276302049	-0.31907278098252956	1.9468570277373956	-0.4298484785355295	-0.2655710613907551	2.05420280750577	-0.7652151694756855	-0.26028440587630947	1.971712373283166	-0.7900336198339811	-1.1299453157195674	1.7918967882396066	0.0553371954988428
78	2.6	-0.2838039142988936	1.8926284956729709	-0.6692001470603834	-0.2991505422141488	1.8893375116412188	-0.6076757754308357																-1.2143161658812467	1.79521976892964	0.18936270361490035	-0.2803707529041988	1.7559821124883421	-0.6873418634707114													-0.2876656806790106	2.04464566183659	-0.6754281505009039	-0.27370861199811564	2.1131328731176944	-0.6651492712270526	-0.30826922475042634	2.0390335394266286	-0.589252432224158	-1.5613457066892638	1.8656883461535472	0.770389707302614	-0.3238799386731276	1.915231689777031	-0.4287189130385538	-0.26765393793571995	2.0530616487040207	-0.7627216183756721	-0.2602726085335614	1.9703180945524505	-0.7901483843284549	-1.1218370794565342	1.789524725665977	0.047289171994079865
79	2.6333333333333333	-0.2819484874766884	1.8890075978255638	-0.6707497890774212	-0.29823275899119916	1.8874106135579376	-0.6041205898637552																-1.2144757712723737	1.7953175581410679	0.1895457329107831	-0.2803707529041988	1.7559821124883421	-0.6873418634707114													-0.28983964585320116	2.0429864187930047	-0.673466079560156	-0.272781618494493	2.112872950734371	-0.6623936230057047	-0.3082265870390907	2.0388693892902032	-0.5891997968318424	-0.3198010480872085	1.9631867963250464	-0.5395560390324268	-0.32995493531219744	1.8913836151734726	-0.4559116604401922	-0.26777542289448697	2.0493443116968657	-0.762086288643228	-0.26040140128777256	1.9678909398772928	-0.7898154168278313	-1.1257653924279136	1.7878202931485836	0.050334484389059964
80	2.6666666666666665	-0.28312881862395045	1.8890594687224387	-0.6656015961555687	-0.2972964131156845	1.8874836190666637	-0.6009111163405496																-0.27085012896360566	1.8928005884412984	-0.7307496546856787	-0.2803707529041988	1.7559821124883421	-0.6873418634707114													-0.28985317362395824	2.0429794304963917	-0.6732698836437885	-0.27283618996638076	2.1116765094989978	-0.6618230586998033	-0.30923320648119557	2.0385945493102677	-0.584046958639486	-1.5437691012353016	1.8590406595403342	0.7383214268872234	-0.31993423332042736	1.8826069505090433	-0.4994781820933703	-0.2679074169864601	2.048164294018971	-0.7621043904834545	-0.2617510417678013	1.9674675148936205	-0.7846841380142603	-1.1309653507086441	1.7893139074281952	0.05606820349823883
81	2.7	-0.28646714573387666	1.8876147271765886	-0.6580169177662842	-0.3005726154412016	1.885757195397628	-0.5931560177637292																-0.26912189116076457	1.892266527029734	-0.7244316400509814	-0.2803707529041988	1.7559821124883421	-0.6873418634707114													-0.28906769491884676	2.0427316714653254	-0.6702077358366673	-0.2749183685422112	2.1115408990188556	-0.6596609921453045	-0.30935720052262283	2.038362502199805	-0.5838369505196697	-1.5299818734373196	1.86287826055564	0.7080823873568081	-0.31610149489148986	1.8919957765616204	-0.5346973830192326	-0.26923174908464614	2.047841466610355	-0.7571247988006832	-0.26318596220037804	1.9688555999440955	-0.7796815122596991	-1.1417465209622435	1.792209126082969	0.07325945916405509
82	2.7333333333333334	-0.2864868791438505	1.8881890618792523	-0.6579915023907661	-0.300402817052977	1.887380743116424	-0.5933141271128228																-0.27131422442487124	1.8936878811908266	-0.7224249221551603	-0.2803707529041988	1.7559821124883421	-0.6873418634707114													-0.2890663393018673	2.042851022715929	-0.6702730093836988	-0.27703444000528665	2.1105313692302294	-0.6575718270230511	-0.3093551668839096	2.0383330316500152	-0.5839773772065445	-0.31408068777518977	1.9593980024357383	-0.5705474109624458	-0.3160969848581107	1.886154783201537	-0.5343171663012989	-0.26915325969444703	2.0491596435263952	-0.7570004184298632	-0.2635329861080252	1.9657744982881675	-0.7795883917288917	-1.1397505155166785	1.791143991220398	0.07222906574557206
83	2.7666666666666666	-0.28879743526632073	1.8869191317951914	-0.6555750012562218	-0.2996879875808573	1.8857955664749406	-0.5900311944687469																-0.27042848319414986	1.8921134206111652	-0.7191497536764759	-0.2803707529041988	1.7559821124883421	-0.6873418634707114													-0.29122009715116726	2.041607269938093	-0.6682288542887873	-0.27616401417319947	2.110579852036241	-0.654577069518763	-0.31152674529793883	2.0370845338885997	-0.5819380117327098	-1.5266045004140247	1.8630068451602184	0.6982204965958189	-0.31918835596695	1.889727199852239	-0.5271834209640289	-0.26909948767295666	2.049177856757462	-0.7568792746285599	-0.2625838075186911	1.9648859378509067	-0.7762672809690401	-1.1448237311718656	1.7885065267147429	0.08481383972899109
84	2.8	-0.2876447352201078	1.8904326850613227	-0.6529378913574373	-0.29960269137547807	1.8875338596490232	-0.5901909216950794																-0.2703051476756784	1.894159961369219	-0.7193074489711071	-0.2803707529041988	1.7559821124883421	-0.6873418634707114													-0.2912121190974588	2.0416879109389545	-0.6680970394244395	-0.27813706682866873	2.1094025429658156	-0.6519534381478315	-0.3114195882444378	2.0382269063610265	-0.5817175968832533	-1.536201387906075	1.8605489742269148	0.7188597502333556	-0.3210239264031517	1.87878905656123	-0.5163944111235395	-0.2690924083935921	2.0493039189199354	-0.7567836235377345	-0.26360523287291804	1.9679625388233095	-0.7710392839145306	-1.153173949719691	1.7878409271023596	0.09823062217431491
85	2.8333333333333335	-0.2896171734042355	1.8891295728403101	-0.6504453461979341	-0.30040393758964234	1.88681514068104	-0.5848643130977931																-0.2693473414652406	1.8920811234230226	-0.716066428082922	-0.2803707529041988	1.7559821124883421	-0.6873418634707114													-0.29026285582139144	2.0428286169679453	-0.6649807690363738	-0.27711462508157364	2.1107984582595716	-0.6486662791294573	-0.31244166371914783	2.038087063890326	-0.5766563827736965	-1.5480599587235973	1.8613175452831348	0.7428853436203996	-0.31999036241442497	1.886586983095337	-0.5000887073817699	-0.2703789649149837	2.0492989013084046	-0.7517034467883527	-0.25993124274705515	1.9660139480803147	-0.7672182300033024	-1.1504706388742534	1.782966165950321	0.10023917175314644
86	2.8666666666666667	-0.2911154406320087	1.8901799386096279	-0.6450561373906034	-0.3017898044779771	1.8866338127054256	-0.5796090702819465																-0.27307760196298797	1.8911600103886517	-0.7086317128448337	-0.2803707529041988	1.7559821124883421	-0.6873418634707114													-0.2913356284591872	2.0430091169322426	-0.6598356353245867	-0.2762426527674571	2.1107178989156474	-0.6455524956618873	-0.3144624979715032	2.0380270189147613	-0.57445817520177	-1.5559323944398942	1.8636195436597867	0.7576879198036753	-0.32635182500962334	1.8850253888264046	-0.48498627593612537	-0.2695128555396406	2.0507800552347173	-0.7489670595487246	-0.26199575453838736	1.9668941126640875	-0.7649834889325529	-1.1661703433691053	1.7865692389081713	0.12525574497072473
